<?xml version="1.0" encoding="UTF-8"?>
<svg xmlns="http://www.w3.org/2000/svg" xmlns:xlink="http://www.w3.org/1999/xlink" viewBox="0 0 48 48" version="1.1" width="480px" height="480px">
<g id="surface1">
<path style=" fill-rule:evenodd;fill:#B71C1C;" d="M 5.269531 10.15625 C 10.167969 8.171875 18.246094 7.914063 21.753906 8.046875 L 24 10.929688 L 26.246094 8.046875 C 29.757813 7.914063 37.835938 8.171875 42.730469 10.15625 C 42.054688 11.4375 39.113281 13.265625 37.496094 13.671875 C 37.402344 11.148438 33.839844 10.621094 30.417969 10.621094 L 24 45.039063 L 17.582031 10.621094 C 14.15625 10.621094 10.589844 11.148438 10.5 13.671875 C 8.886719 13.265625 5.945313 11.4375 5.269531 10.15625 Z "/>
<path style=" fill-rule:evenodd;fill:#B71C1C;" d="M 3 6.734375 L 4.253906 8.574219 C 9.007813 6.90625 14.648438 6.101563 20.601563 5.921875 C 22.851563 5.855469 25.148438 5.855469 27.398438 5.921875 C 33.351563 6.101563 38.992188 6.902344 43.746094 8.574219 L 45 6.734375 C 39.386719 4.832031 33.421875 4.199219 27.46875 4.042969 C 25.160156 3.984375 22.839844 3.984375 20.535156 4.042969 C 14.574219 4.199219 8.613281 4.832031 3 6.734375 Z "/>
</g>
</svg>
